<?xml version="1.0" encoding="utf-8"?>
<!-- Generator: Adobe Illustrator 19.1.0, SVG Export Plug-In . SVG Version: 6.00 Build 0)  -->
<!DOCTYPE svg PUBLIC "-//W3C//DTD SVG 1.1//EN" "http://www.w3.org/Graphics/SVG/1.1/DTD/svg11.dtd">
<svg version="1.1" id="Layer_1" xmlns="http://www.w3.org/2000/svg" xmlns:xlink="http://www.w3.org/1999/xlink" x="0px" y="0px"
	 viewBox="-297 389 16 16" style="enable-background:new -297 389 16 16;" xml:space="preserve">
<style type="text/css">
	.st0{fill:#FFFFFF;}
</style>
<g>
	<path class="st0" d="M-285.8,398.4C-285.8,398.4-285.8,398.4-285.8,398.4c0.4,0,2.1-0.1,3.3-1.3c0.6-0.6,1.3-1.6,1.3-3.3
		c0-3.6-2.7-4.9-4.5-4.9h-4.7c-0.5,0-0.9,0.2-1.1,0.6c-0.2,0.4-0.2,0.9,0,1.3l2.1,3.8c0.4,0.6,1.1,0.8,1.8,0.5
		c0.6-0.4,0.8-1.1,0.5-1.8l-1-1.8h2.4c0,0,0.6,0,1.1,0.3c0.6,0.4,0.8,1,0.8,1.9c0,1.1-0.5,1.5-0.8,1.7c-0.5,0.3-1.1,0.3-1.1,0.3
		c0,0,0,0,0,0h-9.7c-0.7,0-1.3,0.6-1.3,1.3s0.6,1.3,1.3,1.3h3.8v5.3c0,0.7,0.6,1.3,1.3,1.3c0.7,0,1.3-0.6,1.3-1.3v-5.3H-285.8z"/>
	<path class="st0" d="M-281.4,403l-2-3.5c-0.4-0.6-1.2-0.8-1.8-0.5c-0.6,0.4-0.8,1.2-0.5,1.8l2,3.5c0.2,0.4,0.7,0.6,1.1,0.6
		c0.2,0,0.4-0.1,0.6-0.2C-281.3,404.5-281.1,403.7-281.4,403z"/>
</g>
</svg>
