<?xml version="1.0" encoding="utf-8"?>
<!-- Generator: Adobe Illustrator 19.1.0, SVG Export Plug-In . SVG Version: 6.00 Build 0)  -->
<!DOCTYPE svg PUBLIC "-//W3C//DTD SVG 1.1//EN" "http://www.w3.org/Graphics/SVG/1.1/DTD/svg11.dtd">
<svg version="1.1" id="Layer_1" xmlns="http://www.w3.org/2000/svg" xmlns:xlink="http://www.w3.org/1999/xlink" x="0px" y="0px"
	 viewBox="0 0 439.2 123.2" style="enable-background:new 0 0 439.2 123.2;" xml:space="preserve">
<g>
	<path class="st0" d="M162,37h11.7l14.1,21h10.4l-14.7-22.2c7.6-1.9,12.7-7.9,12.7-16.5c0-10.6-7.6-17.3-18.3-17.3H153v56h9V37z
		 M162,10h14.2c6.5,0,10.7,3.3,10.7,9.5c0,6.1-4.2,9.5-10.6,9.5H162V10z"/>
	<path class="st0" d="M220.7,59.2c6.5,0,11.7-2,17.5-8l-5-5.3c-4.8,4.3-7.5,5.8-12.4,5.8c-7.6,0-11.3-4.8-11.9-11.8h29
		c0.1-1,0.2-2.4,0.2-3.4c0-12-6.5-19.4-18.2-19.4c-12.1,0-19.5,8.9-19.5,21.3C200.5,51,208.3,59.2,220.7,59.2z M219.7,24.1
		c6.1,0,9.6,3.9,9.9,9.9h-20.4C210.3,28,213.9,24.1,219.7,24.1z"/>
	<path class="st0" d="M249,58h9V25h9v-7h-9v-4c0-4.4,1.5-6.1,5.2-6.1c1.3,0,2.7,0.2,5,0.7l1.5-6.5c-3.3-1.2-5.8-1.4-8.3-1.4
		c-8,0-12.5,4.3-12.5,12.5V18h-7v7h7V58z"/>
	<path class="st0" d="M288.2,59.2c5.7,0,9.8-2.2,11.8-5.7V58h8V18h-9v24.4c0,6.2-3.6,9.3-8.9,9.3c-4.9,0-7.1-2.8-7.1-7.6V18h-9v28.5
		C274,53.7,278.2,59.2,288.2,59.2z"/>
	<path class="st0" d="M344,23.5c-2-3.9-6.4-6.3-12.4-6.3c-10.1,0-17.3,8.3-17.3,20c0,11.9,7.4,20.1,17.5,20.1
		c5.7,0,9.2-2.1,12.2-5.7v4.2c0,7.5-4.7,10.3-10.5,10.3c-5,0-8.8-1.7-14.2-4.9l-4.3,6.3c6.1,4,11.9,5.8,18.3,5.8
		c11,0,18.6-5.9,18.6-16.8V18h-8V23.5z M333.5,50c-6.5,0-10.4-5.2-10.4-12.8c0-7.5,3.9-12.6,10.4-12.6c6.2,0,10.5,5.1,10.5,12.6
		C344,44.8,339.7,50,333.5,50z"/>
	<path class="st0" d="M378.6,51.8c-7.6,0-11.3-4.8-11.9-11.8h29c0.1-1,0.2-2.4,0.2-3.4c0-12-6.5-19.4-18.2-19.4
		c-12.1,0-19.5,8.9-19.5,21.3c0,12.5,7.8,20.7,20.3,20.7c6.5,0,11.7-2,17.5-8l-5-5.3C386.2,50.2,383.5,51.8,378.6,51.8z M377.5,24.1
		c6.1,0,9.6,3.9,9.9,9.9H367C368.1,28,371.6,24.1,377.5,24.1z"/>
	<path class="st0" d="M434.2,46c-4.8,4.3-7.5,5.8-12.4,5.8c-7.6,0-11.3-4.8-11.9-11.8h29c0.1-1,0.2-2.4,0.2-3.4
		c0-12-6.5-19.4-18.2-19.4c-12.1,0-19.5,8.9-19.5,21.3c0,12.5,7.8,20.7,20.3,20.7c6.5,0,11.7-2,17.5-8L434.2,46z M420.6,24.1
		c6.1,0,9.6,3.9,9.9,9.9h-20.4C411.3,28,414.8,24.1,420.6,24.1z"/>
	<polygon class="st0" points="196,66 153,66 153,74 170,74 170,122 179,122 179,74 196,74 	"/>
	<path class="st0" d="M211.8,115.7c-7.6,0-11.3-4.7-11.9-11.7h29c0.1-1,0.2-2.5,0.2-3.5c0-12-6.5-19.5-18.2-19.5
		c-12.1,0-19.5,8.9-19.5,21.3c0,12.5,7.8,20.7,20.3,20.7c6.5,0,11.7-2,17.5-8l-5-5.3C219.4,114.1,216.7,115.7,211.8,115.7z
		 M210.6,88.1c6.1,0,9.6,3.9,9.9,9.9h-20.4C201.3,92,204.8,88.1,210.6,88.1z"/>
	<path class="st0" d="M253.7,115.6c-7.3,0-11-6.3-11-13.6c0-7.3,3.7-13.7,11-13.7c3.5,0,6.4,1,10.8,5.5l5.5-5.3
		c-5-5.7-9.9-7.6-16.2-7.6c-11.7,0-19.9,8.1-19.9,21c0,12.9,8,21,19.8,21c6.7,0,11.6-2,17-8.9l-5.7-4.8
		C260.7,114.1,257.8,115.6,253.7,115.6z"/>
	<path class="st0" d="M294.7,81c-5,0-8.7,1.9-11.7,5.2V66h-9v56h9V97.7c0-5.4,3.7-9.2,8.9-9.2c5.3,0,8.1,3.2,8.1,9V122h9V94.8
		C309,87,304.1,81,294.7,81z"/>
	<path class="st0" d="M84.5,72c0.1,0,0.1,0,0.2,0c2.6,0,15.6-0.3,25.3-9.7c4.4-4.3,9.7-12,9.7-25C119.6,9.8,98.7,0,84.6,0H48.6
		c-3.6,0-6.8,1.8-8.6,4.9c-1.8,3.1-1.8,6.8-0.1,9.9l16.4,29c2.7,4.8,8.8,6.5,13.6,3.8c4.8-2.7,6.5-8.7,3.8-13.5l-8-14h18.8
		c0,0,4.5,0,8.5,2.5c4.4,2.8,6.5,7.6,6.5,14.8c0,8.5-3.7,11.5-6.5,13c-4,2.1-8.4,1.9-8.4,1.9c-0.1,0-0.1-0.2-0.2-0.2H10
		C4.5,52,0,56.5,0,62s4.5,10,10,10h30v41c0,5.5,4.5,10,10,10s10-4.5,10-10V72H84.5z"/>
	<path class="st0" d="M102.6,80.9c-2.8-4.8-8.9-6.4-13.7-3.6c-4.8,2.8-6.4,8.9-3.6,13.7l15.8,27.3c1.9,3.2,5.2,5,8.7,5
		c1.7,0,3.4-0.4,5-1.3c4.8-2.8,6.4-8.9,3.6-13.7L102.6,80.9z"/>
</g>
</svg>
