<?xml version="1.0" encoding="iso-8859-1"?>
<!-- Generator: Adobe Illustrator 19.1.0, SVG Export Plug-In . SVG Version: 6.00 Build 0)  -->
<svg version="1.1" id="Layer_1" xmlns="http://www.w3.org/2000/svg" xmlns:xlink="http://www.w3.org/1999/xlink" x="0px" y="0px"
	 viewBox="0 0 361.702 360.638" style="enable-background:new 0 0 361.702 360.638;" xml:space="preserve">
<g>
	<path style="fill:#E92E71;" d="M51.399,158.484c0.268-56.185,35.756-108.351,88.878-127.697
		c54.099-19.702,115.363-3.041,152.21,41.1c20.19,24.187,30.911,55.209,31.061,86.598c0.051,10.615,16.551,10.636,16.5,0
		c-0.304-63.7-40.613-121.301-100.369-143.377C180.248-6.85,110.737,11.957,70.377,60.722
		c-22.792,27.538-35.308,62.002-35.478,97.762C34.848,169.103,51.348,169.116,51.399,158.484L51.399,158.484z"/>
</g>
<g>
	<path style="fill:#E92E71;" d="M330.312,291.146c-0.292,0-0.586-0.018-0.883-0.052c-4.114-0.483-7.058-4.21-6.575-8.323
		c0.294-2.511,0.444-5.071,0.444-7.611c0-4.143,3.358-7.5,7.5-7.5s7.5,3.357,7.5,7.5c0,3.122-0.184,6.271-0.546,9.359
		C337.304,288.337,334.063,291.146,330.312,291.146z"/>
	<path style="fill:#E92E71;" d="M244.673,353.269c-0.485,0-0.978-0.047-1.473-0.146c-6.03-1.2-11.921-3.109-17.508-5.673
		c-3.765-1.727-5.417-6.179-3.689-9.944c1.727-3.764,6.181-5.414,9.944-3.688c4.526,2.076,9.297,3.622,14.183,4.595
		c4.062,0.809,6.7,4.758,5.891,8.82C251.31,350.801,248.177,353.269,244.673,353.269z M272.95,353.263
		c-3.504,0-6.637-2.468-7.348-6.036c-0.809-4.062,1.828-8.012,5.891-8.82c4.88-0.972,9.651-2.519,14.18-4.598
		c3.766-1.727,8.217-0.076,9.945,3.688c1.728,3.765,0.077,8.217-3.688,9.945c-5.591,2.566-11.481,4.476-17.508,5.676
		C273.928,353.217,273.435,353.263,272.95,353.263z M205.922,331.515c-2.019,0-4.031-0.81-5.51-2.409
		c-4.173-4.516-7.821-9.512-10.842-14.851c-2.04-3.604-0.771-8.181,2.834-10.221c3.605-2.041,8.181-0.771,10.221,2.834
		c2.452,4.333,5.414,8.39,8.803,12.056c2.812,3.042,2.625,7.787-0.417,10.599C209.569,330.856,207.742,331.515,205.922,331.515z
		 M311.695,331.503c-1.82,0-3.644-0.658-5.086-1.99c-3.043-2.811-3.232-7.555-0.421-10.598c3.389-3.67,6.35-7.728,8.8-12.062
		c2.04-3.604,6.615-4.876,10.22-2.836c3.605,2.039,4.875,6.615,2.836,10.221c-3.019,5.338-6.665,10.335-10.837,14.853
		C315.729,330.692,313.715,331.503,311.695,331.503z"/>
	<path style="fill:#E92E71;" d="M187.292,291.146c-3.751,0-6.991-2.809-7.439-6.625c-0.362-3.085-0.546-6.234-0.546-9.361
		c0-4.143,3.358-7.5,7.5-7.5s7.5,3.357,7.5,7.5c0,2.544,0.149,5.104,0.444,7.609c0.483,4.114-2.459,7.841-6.573,8.324
		C187.88,291.129,187.584,291.146,187.292,291.146z"/>
</g>
<g>
	<path style="fill:#20245C;" d="M65.604,219.665c-0.284,12.617-10.265,23.101-23.101,23.101c-12.616,0-23.101-10.487-23.101-23.101
		c0-12.613,10.484-23.101,23.101-23.101C55.341,196.564,65.32,207.047,65.604,219.665c0.217,9.638,15.217,9.672,15,0
		c-0.364-16.179-10.176-30.308-25.429-35.918c-14.612-5.375-31.899-0.52-41.789,11.408c-10.157,12.25-11.881,29.913-3.781,43.741
		c8.212,14.02,24.553,21.044,40.393,18.11c17.863-3.31,30.207-19.589,30.606-37.34C80.821,210.008,65.821,210.011,65.604,219.665z"
		/>
</g>
<path style="fill:#20245C;" d="M188.303,242.548L188.303,242.548c-3.306,3.306-8.715,3.306-12.021,0l-17.33-17.33
	c-3.306-3.306-3.306-8.715,0-12.021v0c3.306-3.306,8.715-3.306,12.021,0l17.33,17.33
	C191.608,233.833,191.608,239.242,188.303,242.548z"/>
<path style="fill:#20245C;" d="M177.175,242.295L177.175,242.295c-3.306-3.306-3.306-8.715,0-12.021l33.472-33.472
	c3.306-3.306,8.715-3.306,12.021,0v0c3.306,3.306,3.306,8.715,0,12.021l-33.472,33.472
	C185.89,245.601,180.481,245.601,177.175,242.295z"/>
<path style="fill:#20245C;" d="M308.261,194.387L308.261,194.387c3.306-3.306,8.715-3.306,12.021,0l33.301,33.301
	c3.306,3.306,3.306,8.715,0,12.021v0c-3.306,3.306-8.715,3.306-12.021,0l-33.301-33.301
	C304.955,203.103,304.955,197.693,308.261,194.387z"/>
<path style="fill:#20245C;" d="M308.261,239.709L308.261,239.709c-3.306-3.306-3.306-8.715,0-12.021l33.301-33.301
	c3.306-3.306,8.715-3.306,12.021,0l0,0c3.306,3.306,3.306,8.715,0,12.021l-33.301,33.301
	C316.976,243.015,311.567,243.015,308.261,239.709z"/>
</svg>
