<?xml version="1.0" encoding="iso-8859-1"?>
<!-- Generator: Adobe Illustrator 19.1.0, SVG Export Plug-In . SVG Version: 6.00 Build 0)  -->
<svg version="1.1" id="Layer_1" xmlns="http://www.w3.org/2000/svg" xmlns:xlink="http://www.w3.org/1999/xlink" x="0px" y="0px"
	 viewBox="0 0 282.979 348.936" style="enable-background:new 0 0 282.979 348.936;" xml:space="preserve">
<g>
	<g>
		<path style="fill:#E92E71;" d="M228.338,139.906c-0.016-0.117-0.032-0.245-0.048-0.367c-2.254-44.575-40.024-80.583-86.535-82.172
			l-1.45-0.015c-0.011,0-0.672,0.031-0.683,0.031c-46.284,1.686-83.969,37.714-86.207,82.198c-0.011,0.107-0.021,0.219-0.032,0.326
			c-1.106,13.274-0.487,47.086,28.669,75.448c0.206,0.265,0.439,0.509,0.677,0.744c11.731,11.298,19.34,24.959,22.61,40.597
			l0.397,3.372l0.021,3.357c0,8.822,7.445,16.098,16.477,16.098l46.139,0.036c0,0.001,0.001,0.002,0.001,0.003
			c1.13,0.017,2.041,0.935,2.041,2.069c0,1.132-0.908,2.048-2.036,2.068c0,0.001-0.001,0.002-0.001,0.004l-58.13,0.056
			c-10.54,0-14.8,13.613-14.8,18.832c0,5.522,4.26,18.832,14.8,18.832l53.384-0.029c1.153,0,2.087,0.934,2.087,2.087
			s-0.934,2.087-2.087,2.087l-45.722,0.036c-4.752,0-8.519,3.713-8.519,8.277c0,4.564,3.942,8.277,8.688,8.277l48.6,0.127
			c10.535,0,14.789-13.264,14.789-18.791c0-5.527-4.265-18.676-14.964-18.676l-53.225-0.023c-1.179,0-2.134-0.955-2.134-2.134
			s0.955-2.134,2.134-2.134l58.12,0.026c10.54,0,14.805-13.367,14.805-18.894c0-5.522-4.265-18.781-14.964-18.781h-45.954
			l-2.36-0.031l-0.011-3.331c-0.005-0.301-0.026-0.581-0.053-0.876l-0.487-4.156c-0.032-0.224-0.063-0.453-0.111-0.677
			c-3.863-18.872-12.948-35.361-26.986-49.027c-0.212-0.26-0.445-0.509-0.683-0.744c-23.822-22.932-24.954-50.255-24.155-61.879
			c0.053-0.336,0.09-0.677,0.101-1.024c1.418-36.318,32.039-65.836,69.857-67.232l0.862,0.015
			c37.775,1.294,68.465,30.817,69.878,67.217c0.011,0.357,0.053,0.713,0.111,1.054c0.81,11.639-0.333,38.926-24.155,61.853
			c-0.159,0.148-0.386,0.418-0.609,0.667c-7.217,7.019-13.207,14.909-17.8,23.467c-2.18,4.049-0.534,9.052,3.688,11.15
			c4.196,2.088,9.408,0.514,11.578-3.545c3.863-7.172,8.921-13.799,15.038-19.692c0.143-0.148,0.381-0.413,0.598-0.667
			C228.84,187.028,229.438,153.175,228.338,139.906z"/>
	</g>
	<g>
		<path style="fill:#20245C;" d="M141.755,45.164c-4.694,0-8.5-3.806-8.5-8.5V13.569c0-4.694,3.806-8.5,8.5-8.5
			c4.695,0,8.5,3.806,8.5,8.5v23.095C150.256,41.358,146.45,45.164,141.755,45.164z"/>
	</g>
	<g>
		<path style="fill:#20245C;" d="M76.613,66.333c-2.628,0-5.22-1.215-6.883-3.504L56.155,44.144
			c-2.759-3.798-1.917-9.113,1.88-11.873c3.797-2.76,9.113-1.918,11.873,1.88l13.575,18.684c2.759,3.798,1.917,9.113-1.88,11.873
			C80.094,65.805,78.345,66.333,76.613,66.333z"/>
	</g>
	<g>
		<path style="fill:#20245C;" d="M36.344,121.754c-0.871,0-1.756-0.135-2.628-0.418l-21.964-7.137
			c-4.465-1.451-6.908-6.246-5.458-10.71c1.451-4.466,6.249-6.909,10.71-5.458l21.964,7.137c4.465,1.451,6.908,6.246,5.458,10.71
			C43.259,119.47,39.927,121.754,36.344,121.754z"/>
	</g>
	<g>
		<path style="fill:#20245C;" d="M14.376,197.391c-3.583,0-6.915-2.284-8.082-5.876c-1.451-4.464,0.993-9.26,5.458-10.71
			l21.964-7.137c4.464-1.452,9.26,0.993,10.71,5.458c1.451,4.464-0.993,9.26-5.458,10.71l-21.964,7.137
			C16.132,197.256,15.247,197.391,14.376,197.391z"/>
	</g>
	<g>
		<path style="fill:#20245C;" d="M205.423,66.333c-1.732,0-3.48-0.528-4.989-1.624c-3.798-2.759-4.64-8.075-1.881-11.873
			l13.575-18.684c2.759-3.798,8.074-4.639,11.873-1.88c3.798,2.759,4.64,8.075,1.881,11.873l-13.575,18.684
			C210.643,65.117,208.05,66.333,205.423,66.333z"/>
	</g>
	<g>
		<path style="fill:#20245C;" d="M245.691,121.754c-3.583,0-6.915-2.284-8.082-5.876c-1.45-4.464,0.993-9.26,5.457-10.71
			l21.965-7.137c4.47-1.452,9.261,0.993,10.711,5.458s-0.993,9.26-5.457,10.71l-21.965,7.137
			C247.447,121.619,246.561,121.754,245.691,121.754z"/>
	</g>
	<g>
		<path style="fill:#20245C;" d="M267.66,197.391c-0.871,0-1.756-0.135-2.629-0.418l-21.965-7.137
			c-4.464-1.451-6.907-6.246-5.457-10.71c1.451-4.465,6.246-6.907,10.711-5.458l21.965,7.137c4.464,1.451,6.907,6.246,5.457,10.71
			C274.575,195.107,271.243,197.391,267.66,197.391z"/>
	</g>
</g>
</svg>
