<?xml version="1.0" encoding="iso-8859-1"?>
<!-- Generator: Adobe Illustrator 19.1.0, SVG Export Plug-In . SVG Version: 6.00 Build 0)  -->
<svg version="1.1" id="Layer_1" xmlns="http://www.w3.org/2000/svg" xmlns:xlink="http://www.w3.org/1999/xlink" x="0px" y="0px"
	 viewBox="0 0 507.447 259.574" style="enable-background:new 0 0 507.447 259.574;" xml:space="preserve">
<path style="fill:#20245C;" d="M499.479,122.576l-54.514-54.514c-3.306-3.306-8.715-3.306-12.021,0l0,0
	c-3.306,3.306-3.306,8.715,0,12.021l48.503,48.503l-48.503,48.503c-3.306,3.306-3.306,8.715,0,12.021h0
	c3.306,3.306,8.715,3.306,12.021,0l54.514-54.514C502.785,131.291,502.785,125.882,499.479,122.576z"/>
<path style="fill:#20245C;" d="M25.185,128.587l48.503-48.503c3.306-3.306,3.306-8.715,0-12.021v0
	c-3.306-3.306-8.715-3.306-12.021,0L7.153,122.576c-3.306,3.306-3.306,8.715,0,12.021l54.514,54.514
	c3.306,3.306,8.715,3.306,12.021,0v0c3.306-3.306,3.306-8.715,0-12.021L25.185,128.587z"/>
<path style="fill:#E92E71;" d="M251.696,252.149c-0.022,0-0.042,0-0.066,0c-13.85,0-26.848-5.386-36.591-15.129l-87.658-87.669
	c-15.587-15.587-24.171-36.393-24.171-58.576s8.584-42.987,24.171-58.573l0.559-0.561c15.345-15.345,35.723-24.344,57.383-25.342
	c21.512-0.992,42.489,5.963,59.065,19.581c1.675,1.376,36.026,31.894,38.225,34.094c3.32,3.319,3.32,8.701,0,12.02
	c-3.313,3.312-8.68,3.319-12.002,0.019c-2.003-1.941-34.45-30.867-37.022-33.004c-13.313-10.937-30.175-16.521-47.484-15.729
	c-17.416,0.802-33.802,8.039-46.141,20.377l-0.559,0.56c-12.379,12.378-19.194,28.91-19.194,46.553
	c0,17.642,6.815,34.174,19.191,46.549l87.658,87.68c6.533,6.532,15.262,10.15,24.581,10.15c0.017,0,0.03,0,0.045,0
	c9.331,0,18.06-3.617,24.592-10.15l87.658-87.669c12.375-12.375,19.191-28.912,19.191-46.554c0-17.643-6.816-34.177-19.191-46.553
	l-0.565-0.566c-20.601-20.602-44.448-26.423-68.958-16.834c-5.523,2.161-9.484,3.822-14.055,7.112
	c-3.812,2.741-9.123,1.875-11.865-1.933c-2.742-3.81-1.877-9.122,1.933-11.865c6.163-4.436,11.481-6.677,17.792-9.147
	c30.834-12.064,61.795-4.733,87.175,20.646l0.565,0.565c15.584,15.584,24.168,36.385,24.168,58.568s-8.584,42.984-24.171,58.571
	l-87.658,87.68C278.555,246.763,265.556,252.149,251.696,252.149z"/>
</svg>
