<?xml version="1.0" encoding="iso-8859-1"?>
<!-- Generator: Adobe Illustrator 19.1.0, SVG Export Plug-In . SVG Version: 6.00 Build 0)  -->
<svg version="1.1" id="Layer_1" xmlns="http://www.w3.org/2000/svg" xmlns:xlink="http://www.w3.org/1999/xlink" x="0px" y="0px"
	 viewBox="0 0 346.809 319.149" style="enable-background:new 0 0 346.809 319.149;" xml:space="preserve">
<path style="fill:#20245C;" d="M171.404,227.069c-27.966,0-50.718-22.752-50.718-50.718s22.752-50.717,50.718-50.717
	s50.718,22.751,50.718,50.717S199.37,227.069,171.404,227.069z M171.404,141.634c-19.144,0-34.718,15.574-34.718,34.717
	c0,19.144,15.574,34.718,34.718,34.718s34.718-15.574,34.718-34.718C206.122,157.208,190.548,141.634,171.404,141.634z"/>
<path style="fill:#E92E71;" d="M173.404,78.423c-20.441,0-37.071-16.63-37.071-37.071S152.963,4.28,173.404,4.28
	s37.071,16.63,37.071,37.071S193.846,78.423,173.404,78.423z M173.404,20.28c-11.619,0-21.071,9.453-21.071,21.071
	s9.452,21.071,21.071,21.071s21.071-9.453,21.071-21.071S185.023,20.28,173.404,20.28z"/>
<circle style="fill:#20245C;" cx="171.404" cy="102.351" r="9.535"/>
<circle style="fill:#20245C;" cx="227.404" cy="232.351" r="9.535"/>
<circle style="fill:#20245C;" cx="116.404" cy="231.351" r="9.535"/>
<path style="fill:#E92E71;" d="M66.404,309.423c-20.441,0-37.071-16.631-37.071-37.072s16.63-37.071,37.071-37.071
	s37.071,16.63,37.071,37.071S86.846,309.423,66.404,309.423z M66.404,251.28c-11.619,0-21.071,9.452-21.071,21.071
	s9.452,21.072,21.071,21.072s21.071-9.453,21.071-21.072S78.023,251.28,66.404,251.28z"/>
<path style="fill:#E92E71;" d="M280.404,311.423c-20.441,0-37.071-16.631-37.071-37.072s16.63-37.071,37.071-37.071
	s37.071,16.63,37.071,37.071S300.846,311.423,280.404,311.423z M280.404,253.28c-11.619,0-21.071,9.452-21.071,21.071
	s9.452,21.072,21.071,21.072s21.071-9.453,21.071-21.072S292.023,253.28,280.404,253.28z"/>
<path style="fill:#20245C;" d="M299.404,169.423c-20.441,0-37.071-16.631-37.071-37.072s16.63-37.071,37.071-37.071
	s37.071,16.63,37.071,37.071S319.846,169.423,299.404,169.423z M299.404,111.28c-11.619,0-21.071,9.452-21.071,21.071
	s9.452,21.072,21.071,21.072s21.071-9.453,21.071-21.072S311.023,111.28,299.404,111.28z"/>
<path style="fill:#20245C;" d="M43.404,169.423c-20.441,0-37.071-16.631-37.071-37.072S22.963,95.28,43.404,95.28
	s37.071,16.63,37.071,37.071S63.846,169.423,43.404,169.423z M43.404,111.28c-11.619,0-21.071,9.452-21.071,21.071
	s9.452,21.072,21.071,21.072s21.071-9.453,21.071-21.072S55.023,111.28,43.404,111.28z"/>
<rect x="233.221" y="123.449" transform="matrix(0.2584 0.966 -0.966 0.2584 325.4412 -120.5242)" style="fill:#20245C;" width="16.001" height="56.517"/>
<rect x="73.963" y="143.707" transform="matrix(0.966 0.2584 -0.2584 0.966 42.67 -21.2608)" style="fill:#20245C;" width="56.517" height="16.001"/>
</svg>
