<?xml version="1.0" encoding="iso-8859-1"?>
<!-- Generator: Adobe Illustrator 19.1.0, SVG Export Plug-In . SVG Version: 6.00 Build 0)  -->
<svg version="1.1" id="Layer_1" xmlns="http://www.w3.org/2000/svg" xmlns:xlink="http://www.w3.org/1999/xlink" x="0px" y="0px"
	 viewBox="0 0 240.426 385.106" style="enable-background:new 0 0 240.426 385.106;" xml:space="preserve">
<path style="fill:#E92E71;" d="M173.305,255.968L173.305,255.968c-3.306,3.306-8.715,3.306-12.021,0l-61.585-61.585
	c-3.306-3.306-3.306-8.715,0-12.021l0,0c3.306-3.306,8.715-3.306,12.021,0l61.585,61.585
	C176.611,247.253,176.611,252.662,173.305,255.968z"/>
<path style="fill:#E92E71;" d="M169.34,252.17h-68.806c-4.675,0-8.194,3.942-8.194,8.617v-0.059c0,4.675,3.519,8.441,8.194,8.441
	h77.094c4.675,0,8.711-3.59,8.711-8.265v-77.094c0-4.675-3.86-8.64-8.535-8.64h0.088c-4.675,0-8.553,3.965-8.553,8.64V252.17z"/>
<path style="fill:#E92E71;" d="M69.657,88.372L69.657,88.372c3.306-3.306,8.715-3.306,12.021,0l61.585,61.585
	c3.306,3.306,3.306,8.715,0,12.021l0,0c-3.306,3.306-8.715,3.306-12.021,0l-61.585-61.585
	C66.352,97.088,66.352,91.678,69.657,88.372z"/>
<path style="fill:#E92E71;" d="M73.34,92.17h69.088c4.675,0,7.912-3.942,7.912-8.617v0.059c0-4.675-3.237-8.441-7.912-8.441H65.334
	c-4.675,0-8.993,3.59-8.993,8.265v77.094c0,4.675,4.142,8.64,8.817,8.64H65.07c4.675,0,8.271-3.965,8.271-8.64V92.17z"/>
<path style="fill:#20245C;" d="M184.877,23.24c17.78,0,32.245,14.465,32.245,32.245v275.107c0,17.78-14.465,32.245-32.245,32.245
	H57.495c-17.78,0-32.245-14.465-32.245-32.245V55.485c0-17.78,14.465-32.245,32.245-32.245H184.877 M184.877,6.24H57.495
	C30.41,6.24,8.25,28.4,8.25,55.485v275.107c0,27.085,22.16,49.245,49.245,49.245h127.382c27.085,0,49.245-22.16,49.245-49.245
	V55.485C234.122,28.4,211.962,6.24,184.877,6.24L184.877,6.24z"/>
<circle style="fill:#20245C;" cx="121.186" cy="321.658" r="21.131"/>
</svg>
